<svg width="32" height="32" viewBox="0 0 32 32" fill="none" xmlns="http://www.w3.org/2000/svg">
<path d="M16 31.716C24.5715 31.716 31.52 24.7675 31.52 16.196C31.52 7.62457 24.5715 0.676025 16 0.676025C7.42858 0.676025 0.480042 7.62457 0.480042 16.196C0.480042 24.7675 7.42858 31.716 16 31.716Z" fill="url(#paint0_linear_210_32)"/>
<path d="M22.7921 22.38L17.5441 9.692C17.2481 9.036 16.8081 8.716 16.2281 8.716H15.7641C15.1841 8.716 14.7441 9.036 14.4481 9.692L12.1641 15.22H10.4361C9.92006 15.224 9.50006 15.64 9.49606 16.16V16.172C9.50006 16.688 9.92006 17.108 10.4361 17.112H11.3641L9.18406 22.38C9.14406 22.496 9.12006 22.616 9.12006 22.74C9.12006 23.036 9.21206 23.268 9.37606 23.448C9.54006 23.628 9.77606 23.716 10.0721 23.716C10.2681 23.712 10.4561 23.652 10.6121 23.536C10.7801 23.42 10.8961 23.252 10.9881 23.06L13.3881 17.108H15.0521C15.5681 17.104 15.9881 16.688 15.9921 16.168V16.144C15.9881 15.628 15.5681 15.208 15.0521 15.204H14.1641L15.9961 10.64L20.9881 23.056C21.0801 23.248 21.1961 23.416 21.3641 23.532C21.5201 23.648 21.7121 23.708 21.9041 23.712C22.2001 23.712 22.4321 23.624 22.6001 23.444C22.7681 23.264 22.8561 23.032 22.8561 22.736C22.8601 22.616 22.8401 22.492 22.7921 22.38Z" fill="white"/>
<defs>
<linearGradient id="paint0_linear_210_32" x1="27.5715" y1="6.45948" x2="4.47777" y2="25.8905" gradientUnits="userSpaceOnUse">
<stop stop-color="#B6509E"/>
<stop offset="1" stop-color="#2EBAC6"/>
</linearGradient>
</defs>
</svg>
