<svg width="492" height="149" viewBox="0 0 492 149" fill="none" xmlns="http://www.w3.org/2000/svg">
<path d="M134.498 97.6151C114.5 97.5715 100.981 99.7908 101.061 80.2164" stroke="white"/>
<path d="M262.943 74.3716C268.81 56.8109 293.669 74.2784 295.396 59.3639C297.124 44.4494 308.325 74.9321 309.674 91.23" stroke="white"/>
<rect x="0.126251" y="43.1331" width="107" height="73" rx="36.5" transform="rotate(-13.5389 0.126251 43.1331)" fill="url(#paint0_linear_208_91)"/>
<path d="M32.4684 82.66L27.7012 62.8623L31.8869 61.8543L35.8232 78.201L44.3107 76.1573L45.1417 79.6083L32.4684 82.66ZM54.1285 77.7512C52.6012 78.1189 51.212 78.1262 49.961 77.7729C48.7149 77.4115 47.658 76.7319 46.7904 75.734C45.9213 74.7296 45.2982 73.4444 44.9211 71.8784C44.5533 70.351 44.527 68.9392 44.8421 67.6428C45.1572 66.3465 45.7753 65.2465 46.6964 64.3429C47.6239 63.4377 48.8159 62.8098 50.2724 62.4591C51.252 62.2232 52.2019 62.1615 53.1222 62.274C54.0473 62.3785 54.901 62.6673 55.6831 63.1403C56.4716 63.6118 57.1572 64.2785 57.7397 65.1405C58.3208 65.9961 58.7633 67.0555 59.0675 68.3186L59.3398 69.4496L46.8019 72.4687L46.1874 69.9167L54.8489 67.831C54.7061 67.2381 54.4508 66.7439 54.0828 66.3484C53.7148 65.9529 53.271 65.6814 52.7514 65.5338C52.2367 65.3782 51.6796 65.3725 51.0803 65.5168C50.4551 65.6674 49.9358 65.9458 49.5223 66.3522C49.1137 66.7506 48.8322 67.2241 48.678 67.7726C48.5221 68.3147 48.5116 68.8797 48.6464 69.4677L49.2306 71.8941C49.4075 72.6288 49.6957 73.231 50.0952 73.7007C50.5011 74.1689 50.9903 74.4875 51.5628 74.6564C52.1354 74.8254 52.7664 74.8268 53.456 74.6608C53.9135 74.5506 54.3169 74.3853 54.6661 74.1649C55.0153 73.9444 55.2942 73.6727 55.5028 73.3497C55.7114 73.0268 55.8416 72.6613 55.8934 72.2534L59.7626 71.5876C59.7896 72.5493 59.5857 73.4439 59.1509 74.2713C58.7209 75.0908 58.0813 75.8039 57.2319 76.4107C56.3875 77.0095 55.353 77.4563 54.1285 77.7512ZM65.0678 65.7283L67.1349 74.3125L63.0168 75.3041L59.4414 60.4558L63.3661 59.5107L63.9969 62.1304L64.1709 62.0885C64.2917 61.1458 64.6782 60.33 65.3305 59.6411C65.9812 58.9457 66.8576 58.4654 67.9597 58.2C68.9908 57.9517 69.9441 57.9608 70.8197 58.2273C71.6952 58.4937 72.4465 58.9946 73.0736 59.73C73.6991 60.4589 74.1508 61.4002 74.4285 62.5538L76.7051 72.008L72.587 72.9996L70.4874 64.2801C70.275 63.3698 69.8723 62.7168 69.2792 62.321C68.6846 61.9187 67.9749 61.8169 67.15 62.0155C66.5957 62.149 66.1347 62.3861 65.7667 62.727C65.4053 63.0663 65.1604 63.4935 65.0321 64.0084C64.9087 64.5154 64.9206 65.0887 65.0678 65.7283ZM84.9359 70.2817C83.8081 70.5533 82.7168 70.5092 81.662 70.1496C80.6121 69.7819 79.6832 69.0954 78.8752 68.0899C78.072 67.0765 77.471 65.7417 77.0722 64.0854C76.6625 62.384 76.5958 60.9035 76.872 59.6438C77.1467 58.3776 77.6709 57.3548 78.4445 56.5753C79.2231 55.7878 80.157 55.263 81.2461 55.0007C82.0775 54.8005 82.8044 54.7755 83.4269 54.9256C84.0543 55.0677 84.5892 55.3071 85.0317 55.6437C85.479 55.9724 85.841 56.3148 86.1176 56.6709L86.2433 56.6406L84.4509 49.1971L88.5594 48.2078L93.3266 68.0056L89.2665 68.9832L88.6939 66.6052L88.5199 66.6471C88.4259 67.1061 88.2505 67.5813 87.9938 68.0726C87.742 68.556 87.3676 68.9973 86.8705 69.3965C86.3799 69.7942 85.7351 70.0893 84.9359 70.2817ZM85.4519 66.6904C86.1157 66.5305 86.6329 66.2151 87.0035 65.744C87.3791 65.2649 87.6102 64.6672 87.6968 63.9509C87.7898 63.2331 87.7301 62.4327 87.5175 61.5498C87.3049 60.6669 86.9977 59.9294 86.5961 59.3375C86.1945 58.7456 85.719 58.3282 85.1696 58.0855C84.6203 57.8428 84.0137 57.8014 83.3499 57.9612C82.6732 58.1241 82.1471 58.4451 81.7715 58.9242C81.396 59.4033 81.1674 59.997 81.0856 60.7053C81.0039 61.4136 81.0663 62.1964 81.2727 63.0535C81.4806 63.9171 81.7837 64.652 82.182 65.2584C82.5852 65.8568 83.0606 66.2878 83.6081 66.5514C84.1606 66.807 84.7752 66.8533 85.4519 66.6904Z" fill="white"/>
<rect x="135.594" y="26.1115" width="136" height="73" rx="36.5" transform="rotate(10.5137 135.594 26.1115)" fill="url(#paint1_linear_208_91)"/>
<path d="M148.756 75.3396L152.472 55.3179L160.488 56.8056C161.961 57.079 163.149 57.5253 164.052 58.1446C164.956 58.764 165.583 59.5074 165.934 60.3749C166.287 61.2359 166.37 62.1682 166.184 63.1719C166.039 63.954 165.755 64.6126 165.332 65.1476C164.91 65.6761 164.39 66.0786 163.773 66.355C163.163 66.6261 162.495 66.7752 161.768 66.8022L161.732 66.9977C162.488 67.1718 163.162 67.5193 163.753 68.0403C164.351 68.5624 164.791 69.2207 165.076 70.015C165.361 70.8028 165.412 71.6888 165.229 72.6729C165.032 73.7353 164.592 74.6346 163.91 75.3709C163.235 76.1018 162.341 76.6135 161.228 76.9059C160.115 77.1983 158.809 77.2054 157.31 76.9272L148.756 75.3396ZM153.631 72.6645L157.083 73.3049C158.262 73.5238 159.164 73.4587 159.789 73.1093C160.414 72.7535 160.797 72.1976 160.938 71.4415C161.04 70.8876 160.997 70.3739 160.809 69.9007C160.62 69.4275 160.301 69.0243 159.85 68.6913C159.406 68.3594 158.845 68.1306 158.167 68.0048L154.618 67.3462L153.631 72.6645ZM155.15 64.4817L158.288 65.0641C158.868 65.1718 159.402 65.1663 159.889 65.0477C160.384 64.9238 160.797 64.6971 161.128 64.3675C161.465 64.039 161.683 63.6109 161.781 63.0829C161.915 62.3595 161.766 61.7284 161.333 61.1897C160.907 60.6521 160.225 60.2963 159.286 60.1221L156.07 59.5252L155.15 64.4817ZM173.059 80.1532C171.54 79.8714 170.287 79.305 169.298 78.4542C168.318 77.598 167.635 76.5342 167.251 75.2628C166.868 73.9849 166.819 72.5769 167.105 71.0388C167.392 69.4876 167.944 68.1876 168.759 67.1388C169.575 66.0834 170.594 65.3353 171.815 64.8945C173.044 64.4484 174.417 64.3663 175.936 64.6481C177.455 64.9299 178.704 65.4989 179.685 66.3551C180.673 67.2059 181.359 68.2703 181.742 69.5482C182.126 70.8196 182.174 72.2309 181.886 73.7821C181.601 75.3202 181.05 76.6169 180.234 77.6723C179.419 78.7211 178.397 79.4686 177.168 79.9147C175.947 80.3555 174.577 80.435 173.059 80.1532ZM173.677 76.9307C174.368 77.0589 174.981 76.9704 175.516 76.6652C176.053 76.3536 176.502 75.8773 176.863 75.2365C177.231 74.5969 177.497 73.8405 177.659 72.9671C177.821 72.0938 177.845 71.2926 177.731 70.5635C177.623 69.8356 177.375 69.2299 176.986 68.7465C176.597 68.263 176.057 67.9572 175.366 67.829C174.669 67.6996 174.045 67.7895 173.496 68.0988C172.952 68.4092 172.497 68.8843 172.129 69.5239C171.767 70.1647 171.505 70.9217 171.343 71.7951C171.181 72.6684 171.154 73.469 171.261 74.1969C171.376 74.926 171.63 75.5329 172.026 76.0175C172.429 76.4969 172.979 76.8013 173.677 76.9307ZM182.661 81.6319L185.448 66.6156L189.486 67.365L188.999 69.985L189.156 70.014C189.602 69.1328 190.193 68.5142 190.926 68.1582C191.661 67.7956 192.449 67.6924 193.289 67.8484C193.498 67.8871 193.72 67.9419 193.957 68.0127C194.193 68.0835 194.398 68.1587 194.572 68.2382L193.886 71.9336C193.702 71.8386 193.441 71.7363 193.104 71.6266C192.767 71.5168 192.455 71.4354 192.168 71.3821C191.556 71.2684 190.983 71.3005 190.452 71.4782C189.927 71.6506 189.482 71.9454 189.114 72.3626C188.754 72.7811 188.516 73.2967 188.403 73.9093L186.826 82.4049L182.661 81.6319ZM193.375 83.6203L196.162 68.604L200.2 69.3533L199.713 71.9734L199.87 72.0024C200.317 71.1212 200.907 70.5026 201.64 70.1465C202.375 69.784 203.163 69.6807 204.003 69.8368C204.212 69.8755 204.434 69.9302 204.671 70.0011C204.907 70.0719 205.112 70.147 205.286 70.2265L204.6 73.922C204.416 73.827 204.155 73.7247 203.818 73.615C203.481 73.5052 203.169 73.4237 202.882 73.3705C202.27 73.2568 201.698 73.2888 201.166 73.4665C200.642 73.6389 200.196 73.9338 199.828 74.351C199.468 74.7695 199.23 75.285 199.117 75.8977L197.54 84.3932L193.375 83.6203ZM210.121 87.0314C208.602 86.7496 207.349 86.1833 206.36 85.3324C205.38 84.4762 204.698 83.4125 204.313 82.1411C203.93 80.8632 203.881 79.4551 204.167 77.917C204.455 76.3658 205.006 75.0658 205.821 74.017C206.637 72.9616 207.656 72.2136 208.877 71.7727C210.106 71.3266 211.48 71.2445 212.998 71.5263C214.517 71.8081 215.766 72.3771 216.747 73.2333C217.735 74.0841 218.421 75.1485 218.804 76.4264C219.188 77.6978 219.236 79.1091 218.948 80.6603C218.663 82.1984 218.112 83.4951 217.296 84.5505C216.481 85.5993 215.459 86.3468 214.23 86.7929C213.009 87.2338 211.639 87.3133 210.121 87.0314ZM210.739 83.8089C211.43 83.9371 212.043 83.8486 212.578 83.5435C213.115 83.2318 213.564 82.7555 213.925 82.1147C214.294 81.4751 214.559 80.7187 214.721 79.8453C214.883 78.972 214.907 78.1708 214.793 77.4417C214.685 76.7138 214.437 76.1081 214.048 75.6247C213.659 75.1412 213.119 74.8354 212.428 74.7072C211.731 74.5778 211.107 74.6677 210.558 74.977C210.015 75.2875 209.559 75.7625 209.191 76.4021C208.829 77.0429 208.567 77.7999 208.405 78.6733C208.243 79.5466 208.216 80.3472 208.324 81.0751C208.438 81.8042 208.693 82.4111 209.088 82.8957C209.491 83.3751 210.042 83.6795 210.739 83.8089ZM222.309 88.9901L221.01 73.2153L225.223 73.9973L225.677 84.5182L225.814 84.5436L230.111 74.9045L234.247 75.672L234.849 86.1596L234.976 86.1832L239.125 76.5773L243.329 77.3575L236.465 91.6172L232.056 90.7989L231.228 80.8761L231.042 80.8416L226.708 89.8065L222.309 88.9901Z" fill="white"/>
<rect x="270.126" y="79.8243" width="209" height="73" rx="36.5" transform="rotate(-22.4287 270.126 79.8243)" fill="url(#paint2_linear_208_91)"/>
<path d="M307.88 114.006L300.11 95.1824L312.794 89.9472L314.148 93.2284L305.445 96.821L307.296 101.306L315.347 97.9829L316.702 101.264L308.65 104.587L310.505 109.082L319.246 105.474L320.6 108.755L307.88 114.006ZM327.272 106.313C326.371 106.685 325.504 106.86 324.671 106.839C323.834 106.811 323.083 106.572 322.417 106.123C321.755 105.665 321.232 104.97 320.847 104.039C320.523 103.254 320.396 102.536 320.463 101.884C320.531 101.232 320.747 100.642 321.109 100.112C321.471 99.5823 321.934 99.1046 322.496 98.6786C323.065 98.2502 323.685 97.8581 324.356 97.5023C325.142 97.0777 325.77 96.7249 326.243 96.4439C326.712 96.1569 327.029 95.89 327.192 95.6432C327.356 95.3965 327.375 95.123 327.252 94.8227L327.229 94.7676C326.988 94.1855 326.619 93.811 326.12 93.6441C325.627 93.4747 325.046 93.5279 324.378 93.8035C323.674 94.0944 323.177 94.482 322.89 94.9665C322.6 95.4449 322.483 95.9447 322.541 96.466L318.798 97.6666C318.628 96.7329 318.683 95.8423 318.964 94.9947C319.243 94.141 319.739 93.3699 320.451 92.6814C321.168 91.9842 322.089 91.4029 323.217 90.9375C324.001 90.6138 324.79 90.3959 325.582 90.2838C326.381 90.1692 327.139 90.1898 327.856 90.3457C328.579 90.4991 329.228 90.812 329.803 91.2846C330.376 91.751 330.836 92.404 331.182 93.2434L335.112 102.765L331.399 104.298L330.591 102.34L330.481 102.386C330.436 102.921 330.293 103.435 330.053 103.929C329.809 104.416 329.46 104.865 329.006 105.275C328.548 105.679 327.971 106.025 327.272 106.313ZM327.278 103.148C327.854 102.911 328.316 102.587 328.663 102.179C329.008 101.764 329.226 101.308 329.315 100.812C329.404 100.317 329.347 99.8205 329.142 99.3242L328.523 97.826C328.434 97.9563 328.296 98.0993 328.109 98.2553C327.926 98.4025 327.714 98.5581 327.473 98.722C327.23 98.8798 326.986 99.0345 326.74 99.1861C326.491 99.3316 326.266 99.464 326.065 99.5831C325.633 99.8402 325.276 100.113 324.993 100.402C324.711 100.69 324.527 101 324.44 101.329C324.352 101.653 324.383 101.998 324.535 102.366C324.755 102.899 325.116 103.227 325.618 103.349C326.124 103.463 326.678 103.396 327.278 103.148ZM337.632 101.725L331.805 87.6077L335.601 86.041L336.618 88.5042L336.765 88.4435C336.661 87.461 336.819 86.621 337.241 85.9233C337.661 85.2195 338.266 84.7045 339.056 84.3782C339.252 84.2973 339.469 84.2223 339.706 84.1532C339.942 84.0841 340.155 84.0356 340.345 84.0077L341.779 87.4819C341.572 87.5027 341.298 87.5586 340.955 87.6497C340.613 87.7409 340.307 87.8421 340.037 87.9534C339.461 88.1911 338.998 88.5292 338.649 88.9676C338.302 89.3973 338.089 89.8871 338.007 90.437C337.932 90.9844 338.013 91.5461 338.251 92.1221L341.548 100.109L337.632 101.725ZM348.252 87.7899L351.62 95.9515L347.705 97.5676L341.878 83.4502L345.61 81.9099L346.638 84.4007L346.803 84.3324C346.777 83.3824 347.032 82.5166 347.57 81.7352C348.106 80.9477 348.898 80.3376 349.945 79.9052C350.926 79.5005 351.869 79.3622 352.775 79.4901C353.681 79.6181 354.501 79.9969 355.234 80.6265C355.965 81.25 356.557 82.1101 357.009 83.2069L360.72 92.1958L356.804 93.8119L353.382 85.5216C353.032 84.6551 352.533 84.0721 351.886 83.7727C351.236 83.4671 350.519 83.4762 349.735 83.7999C349.208 84.0174 348.789 84.323 348.478 84.7166C348.174 85.1077 347.998 85.5676 347.951 86.0962C347.907 86.6162 348.007 87.1807 348.252 87.7899ZM365.044 68.3806L372.814 87.2038L368.834 88.8465L361.064 70.0233L365.044 68.3806ZM376.043 76.3186L379.412 84.4803L375.497 86.0964L369.67 71.9789L373.401 70.4387L374.429 72.9295L374.595 72.8612C374.568 71.9112 374.824 71.0454 375.362 70.264C375.898 69.4764 376.689 68.8664 377.737 68.4339C378.717 68.0293 379.661 67.8909 380.567 68.0189C381.473 68.1468 382.293 68.5256 383.026 69.1553C383.757 69.7788 384.348 70.6389 384.801 71.7357L388.511 80.7245L384.596 82.3406L381.174 74.0503C380.824 73.1839 380.325 72.6009 379.678 72.3015C379.028 71.9959 378.311 72.005 377.527 72.3287C377 72.5462 376.581 72.8518 376.27 73.2454C375.965 73.6365 375.789 74.0964 375.742 74.625C375.699 75.1449 375.799 75.7095 376.043 76.3186ZM392.762 62.4476L393.975 65.3888L385.474 68.8979L384.26 65.9568L392.762 62.4476ZM384.794 61.7778L388.709 60.1617L394.142 73.3233C394.291 73.6848 394.462 73.9439 394.656 74.1006C394.847 74.2511 395.058 74.3257 395.286 74.3245C395.522 74.3207 395.771 74.2644 396.034 74.1556C396.218 74.0798 396.396 73.9886 396.567 73.8821C396.735 73.7694 396.865 73.6837 396.955 73.6248L398.774 76.2842C398.603 76.4264 398.356 76.6107 398.034 76.837C397.714 77.0695 397.303 77.2999 396.802 77.5282C395.874 77.9544 394.995 78.1703 394.165 78.1756C393.342 78.1785 392.609 77.9576 391.966 77.5128C391.324 77.0681 390.815 76.3818 390.439 75.4541L384.794 61.7778ZM407.017 73.4088C405.565 74.0082 404.194 74.23 402.903 74.0742C401.616 73.9098 400.467 73.4017 399.456 72.5498C398.442 71.6918 397.628 70.5184 397.013 69.0294C396.414 67.5772 396.169 66.1864 396.28 64.8569C396.391 63.5275 396.832 62.3452 397.602 61.3101C398.379 60.2725 399.46 59.4679 400.844 58.8963C401.776 58.5119 402.705 58.3041 403.631 58.273C404.561 58.2333 405.449 58.3867 406.295 58.7332C407.147 59.0772 407.928 59.63 408.636 60.3916C409.343 61.1471 409.944 62.1253 410.439 63.3263L410.883 64.4016L398.962 69.322L397.961 66.8955L406.196 63.4964C405.963 62.9327 405.635 62.4839 405.21 62.15C404.785 61.8162 404.305 61.6165 403.769 61.5509C403.236 61.4767 402.685 61.5573 402.115 61.7925C401.521 62.0378 401.051 62.3932 400.705 62.8586C400.363 63.3153 400.158 63.8266 400.09 64.3924C400.02 64.952 400.097 65.5119 400.321 66.072L401.273 68.379C401.561 69.0775 401.939 69.6279 402.407 70.0303C402.88 70.4301 403.412 70.6692 404.004 70.7477C404.596 70.8261 405.22 70.7301 405.875 70.4595C406.31 70.2799 406.683 70.0542 406.994 69.7825C407.305 69.5107 407.539 69.1992 407.695 68.8478C407.851 68.4965 407.923 68.1153 407.911 67.7043L411.631 66.4486C411.807 67.3945 411.743 68.3099 411.442 69.1946C411.143 70.0706 410.622 70.874 409.876 71.6048C409.134 72.3269 408.182 72.9282 407.017 73.4088ZM415.421 69.6175L409.594 55.5001L413.389 53.9333L414.406 56.3965L414.553 56.3358C414.449 55.3534 414.608 54.5133 415.03 53.8156C415.449 53.1118 416.054 52.5968 416.845 52.2706C417.041 52.1896 417.257 52.1146 417.494 52.0456C417.731 51.9765 417.944 51.928 418.133 51.9001L419.567 55.3743C419.36 55.395 419.086 55.4509 418.744 55.5421C418.401 55.6332 418.095 55.7345 417.825 55.8457C417.249 56.0835 416.787 56.4215 416.437 56.8599C416.091 57.2896 415.877 57.7794 415.796 58.3294C415.72 58.8768 415.802 59.4384 416.039 60.0144L419.336 68.0014L415.421 69.6175ZM431.384 63.3514C429.932 63.9507 428.56 64.1726 427.27 64.0168C425.983 63.8524 424.833 63.3443 423.822 62.4924C422.808 61.6344 421.994 60.461 421.379 58.972C420.78 57.5198 420.536 56.129 420.647 54.7995C420.758 53.4701 421.198 52.2878 421.969 51.2527C422.745 50.215 423.826 49.4104 425.211 48.8389C426.142 48.4544 427.071 48.2467 427.998 48.2156C428.928 48.1759 429.816 48.3293 430.662 48.6758C431.514 49.0198 432.294 49.5726 433.003 50.3342C433.709 51.0897 434.31 52.0679 434.806 53.2689L435.25 54.3442L423.329 59.2646L422.327 56.8381L430.562 53.439C430.33 52.8753 430.001 52.4265 429.576 52.0926C429.152 51.7588 428.671 51.5591 428.135 51.4935C427.603 51.4193 427.051 51.4999 426.481 51.7351C425.887 51.9804 425.417 52.3358 425.071 52.8012C424.729 53.2579 424.524 53.7692 424.457 54.335C424.386 54.8946 424.463 55.4545 424.687 56.0146L425.64 58.3216C425.928 59.0201 426.306 59.5705 426.773 59.9729C427.246 60.3727 427.779 60.6118 428.371 60.6903C428.962 60.7687 429.586 60.6727 430.242 60.402C430.677 60.2225 431.05 59.9968 431.361 59.7251C431.672 59.4533 431.905 59.1417 432.061 58.7904C432.218 58.4391 432.29 58.0579 432.278 57.6469L435.998 56.3912C436.173 57.3371 436.11 58.2525 435.808 59.1372C435.51 60.0132 434.988 60.8166 434.243 61.5474C433.501 62.2695 432.548 62.8708 431.384 63.3514ZM447.368 44.6201L443.874 46.3202C443.687 46.0391 443.441 45.8178 443.138 45.6561C442.832 45.4884 442.483 45.3992 442.091 45.3887C441.703 45.3696 441.283 45.4536 440.829 45.6408C440.223 45.8911 439.764 46.231 439.454 46.6603C439.141 47.0835 439.072 47.5065 439.246 47.9293C439.385 48.2663 439.638 48.4956 440.003 48.6172C440.369 48.7387 440.909 48.7347 441.623 48.605L444.39 48.065C445.879 47.7804 447.089 47.8114 448.021 48.1582C448.953 48.505 449.629 49.187 450.049 50.2041C450.431 51.1293 450.493 52.0538 450.236 52.9774C449.986 53.8985 449.469 54.7498 448.687 55.5314C447.909 56.3044 446.908 56.9438 445.682 57.4496C443.813 58.221 442.164 58.4465 440.733 58.1261C439.307 57.797 438.22 56.9977 437.474 55.7281L441.241 53.9363C441.593 54.4581 442.055 54.7768 442.626 54.8924C443.194 55.0019 443.828 54.9125 444.527 54.6242C445.213 54.3409 445.71 53.9816 446.018 53.5461C446.329 53.102 446.401 52.6673 446.233 52.242C446.08 51.8891 445.809 51.66 445.422 51.5547C445.032 51.4433 444.505 51.4527 443.841 51.5831L441.196 52.1051C439.703 52.3984 438.48 52.3441 437.525 51.9422C436.576 51.5377 435.884 50.8085 435.449 49.7546C435.075 48.8478 434.998 47.9654 435.217 47.1074C435.443 46.2469 435.93 45.4544 436.678 44.7297C437.432 44.0026 438.412 43.3899 439.619 42.8916C441.402 42.1557 442.961 41.9533 444.295 42.2846C445.636 42.6134 446.66 43.3919 447.368 44.6201ZM455.485 36.5582L456.699 39.4993L448.197 43.0085L446.983 40.0673L455.485 36.5582ZM447.517 35.8884L451.432 34.2723L456.865 47.4338C457.014 47.7954 457.186 48.0544 457.379 48.2111C457.571 48.3617 457.781 48.4363 458.01 48.435C458.245 48.4312 458.494 48.375 458.758 48.2662C458.941 48.1903 459.119 48.0991 459.29 47.9926C459.459 47.88 459.588 47.7943 459.679 47.7354L461.497 50.3948C461.326 50.537 461.08 50.7213 460.757 50.9476C460.437 51.1801 460.027 51.4105 459.526 51.6388C458.597 52.065 457.718 52.2808 456.889 52.2862C456.065 52.2891 455.332 52.0681 454.69 51.6234C454.047 51.1786 453.538 50.4924 453.162 49.5646L447.517 35.8884Z" fill="white"/>
<defs>
<linearGradient id="paint0_linear_208_91" x1="-26.83" y1="101.07" x2="124.455" y2="101.07" gradientUnits="userSpaceOnUse">
<stop offset="0.236115" stop-color="#00D502"/>
<stop offset="0.526874" stop-color="#00864E"/>
<stop offset="0.847529" stop-color="#004745"/>
</linearGradient>
<linearGradient id="paint1_linear_208_91" x1="101.332" y1="84.0479" x2="293.62" y2="84.0479" gradientUnits="userSpaceOnUse">
<stop offset="0.236115" stop-color="#00D502"/>
<stop offset="0.526874" stop-color="#00864E"/>
<stop offset="0.847529" stop-color="#004745"/>
</linearGradient>
<linearGradient id="paint2_linear_208_91" x1="217.473" y1="137.761" x2="512.975" y2="137.761" gradientUnits="userSpaceOnUse">
<stop offset="0.236115" stop-color="#00D502"/>
<stop offset="0.526874" stop-color="#00864E"/>
<stop offset="0.847529" stop-color="#004745"/>
</linearGradient>
</defs>
</svg>
